<mxfile host="Electron" agent="Mozilla/5.0 (Windows NT 10.0; Win64; x64) AppleWebKit/537.36 (KHTML, like Gecko) draw.io/27.0.9 Chrome/134.0.6998.205 Electron/35.4.0 Safari/537.36" version="27.0.9">
  <diagram name="Page-1" id="9WxAjnLhv_x0VrmKmplZ">
    <mxGraphModel dx="1979" dy="1252" grid="1" gridSize="10" guides="1" tooltips="1" connect="1" arrows="1" fold="1" page="1" pageScale="1" pageWidth="1169" pageHeight="827" math="0" shadow="0">
      <root>
        <mxCell id="0" />
        <mxCell id="1" parent="0" />
        <mxCell id="Ozs2Yd4t2Ja9yuNUxgQn-1" value="" style="edgeStyle=orthogonalEdgeStyle;rounded=0;orthogonalLoop=1;jettySize=auto;html=1;" parent="1" source="Ozs2Yd4t2Ja9yuNUxgQn-2" target="Ozs2Yd4t2Ja9yuNUxgQn-8" edge="1">
          <mxGeometry relative="1" as="geometry" />
        </mxCell>
        <mxCell id="Ozs2Yd4t2Ja9yuNUxgQn-2" value="Start" style="ellipse;whiteSpace=wrap;html=1;fillColor=#00FF00;" parent="1" vertex="1">
          <mxGeometry x="160" y="-202" width="120" height="80" as="geometry" />
        </mxCell>
        <mxCell id="Ozs2Yd4t2Ja9yuNUxgQn-3" value="" style="edgeStyle=orthogonalEdgeStyle;rounded=0;orthogonalLoop=1;jettySize=auto;html=1;" parent="1" source="Ozs2Yd4t2Ja9yuNUxgQn-4" target="Ozs2Yd4t2Ja9yuNUxgQn-6" edge="1">
          <mxGeometry relative="1" as="geometry" />
        </mxCell>
        <mxCell id="Ozs2Yd4t2Ja9yuNUxgQn-4" value="sum =&lt;div&gt;num1 + num2 + num3&lt;/div&gt;" style="rounded=0;whiteSpace=wrap;html=1;fillColor=#FF8000;" parent="1" vertex="1">
          <mxGeometry x="400" y="-42" width="130" height="60" as="geometry" />
        </mxCell>
        <mxCell id="Ozs2Yd4t2Ja9yuNUxgQn-14" style="edgeStyle=orthogonalEdgeStyle;rounded=0;orthogonalLoop=1;jettySize=auto;html=1;" parent="1" source="Ozs2Yd4t2Ja9yuNUxgQn-6" target="Ozs2Yd4t2Ja9yuNUxgQn-11" edge="1">
          <mxGeometry relative="1" as="geometry" />
        </mxCell>
        <mxCell id="Ozs2Yd4t2Ja9yuNUxgQn-6" value="Print: sum" style="shape=parallelogram;perimeter=parallelogramPerimeter;whiteSpace=wrap;html=1;fixedSize=1;fillColor=#1ba1e2;fontColor=#ffffff;strokeColor=#006EAF;" parent="1" vertex="1">
          <mxGeometry x="405" y="90" width="120" height="60" as="geometry" />
        </mxCell>
        <mxCell id="Ozs2Yd4t2Ja9yuNUxgQn-7" value="" style="edgeStyle=orthogonalEdgeStyle;rounded=0;orthogonalLoop=1;jettySize=auto;html=1;" parent="1" source="Ozs2Yd4t2Ja9yuNUxgQn-8" target="Ozs2Yd4t2Ja9yuNUxgQn-4" edge="1">
          <mxGeometry relative="1" as="geometry" />
        </mxCell>
        <mxCell id="Ozs2Yd4t2Ja9yuNUxgQn-8" value="Read:&amp;nbsp;&lt;div&gt;num1,&lt;span style=&quot;background-color: transparent; color: light-dark(rgb(0, 0, 0), rgb(255, 255, 255));&quot;&gt;&amp;nbsp;num2, num3&amp;nbsp;&lt;/span&gt;&lt;/div&gt;" style="shape=parallelogram;perimeter=parallelogramPerimeter;whiteSpace=wrap;html=1;fixedSize=1;fillColor=#B266FF;" parent="1" vertex="1">
          <mxGeometry x="150" y="-42" width="140" height="60" as="geometry" />
        </mxCell>
        <mxCell id="Ozs2Yd4t2Ja9yuNUxgQn-9" value="&lt;div style=&quot;text-align: left;&quot;&gt;&lt;span style=&quot;background-color: transparent;&quot;&gt;&lt;font style=&quot;color: rgb(255, 0, 0);&quot;&gt;#10&lt;/font&gt;&lt;/span&gt;&lt;/div&gt;&lt;div style=&quot;text-align: left;&quot;&gt;&lt;div&gt;&lt;br&gt;&lt;/div&gt;&lt;div&gt;&amp;nbsp;This flowchart a program asks the user for three numbers,&lt;/div&gt;&lt;div&gt;&amp;nbsp;then calculates their sum and average, and prints the results on the screen.&lt;/div&gt;&lt;div&gt;&lt;br&gt;&lt;/div&gt;&lt;/div&gt;" style="text;html=1;align=center;verticalAlign=middle;resizable=0;points=[];autosize=1;strokeColor=none;fillColor=none;" parent="1" vertex="1">
          <mxGeometry x="-280" y="-132" width="430" height="90" as="geometry" />
        </mxCell>
        <mxCell id="Ozs2Yd4t2Ja9yuNUxgQn-15" value="" style="edgeStyle=orthogonalEdgeStyle;rounded=0;orthogonalLoop=1;jettySize=auto;html=1;" parent="1" source="Ozs2Yd4t2Ja9yuNUxgQn-11" target="Ozs2Yd4t2Ja9yuNUxgQn-12" edge="1">
          <mxGeometry relative="1" as="geometry" />
        </mxCell>
        <mxCell id="Ozs2Yd4t2Ja9yuNUxgQn-11" value="Avg = sum / 3" style="whiteSpace=wrap;html=1;strokeColor=#FF8000;fillColor=#FF8000;" parent="1" vertex="1">
          <mxGeometry x="160" y="90" width="120" height="60" as="geometry" />
        </mxCell>
        <mxCell id="Ozs2Yd4t2Ja9yuNUxgQn-16" style="edgeStyle=orthogonalEdgeStyle;rounded=0;orthogonalLoop=1;jettySize=auto;html=1;entryX=0;entryY=0.5;entryDx=0;entryDy=0;" parent="1" source="Ozs2Yd4t2Ja9yuNUxgQn-12" target="Ozs2Yd4t2Ja9yuNUxgQn-13" edge="1">
          <mxGeometry relative="1" as="geometry" />
        </mxCell>
        <mxCell id="Ozs2Yd4t2Ja9yuNUxgQn-12" value="Print: Avg" style="shape=parallelogram;perimeter=parallelogramPerimeter;whiteSpace=wrap;html=1;fixedSize=1;fillColor=#1ba1e2;fontColor=#ffffff;strokeColor=#006EAF;" parent="1" vertex="1">
          <mxGeometry x="160" y="210" width="120" height="60" as="geometry" />
        </mxCell>
        <mxCell id="Ozs2Yd4t2Ja9yuNUxgQn-13" value="End" style="ellipse;whiteSpace=wrap;html=1;fillColor=#FF3333;" parent="1" vertex="1">
          <mxGeometry x="420" y="200" width="80" height="80" as="geometry" />
        </mxCell>
      </root>
    </mxGraphModel>
  </diagram>
</mxfile>
